<svg width="289" height="41" viewBox="0 0 289 41" fill="none" xmlns="http://www.w3.org/2000/svg">
<path d="M8.71662 0.727272V40H0.413352V0.727272H8.71662ZM23.5637 22.9716V40H15.3947V10.5455H23.1802V15.7422H23.5254C24.1774 14.0291 25.2704 12.674 26.8045 11.6768C28.3386 10.6669 30.1987 10.1619 32.3848 10.1619C34.4302 10.1619 36.2136 10.6094 37.7349 11.5043C39.2562 12.3991 40.4387 13.6776 41.2825 15.3395C42.1262 16.9886 42.5481 18.9574 42.5481 21.2457V40H34.3791V22.7031C34.3919 20.9006 33.9316 19.4943 32.9984 18.4844C32.0652 17.4616 30.7804 16.9503 29.144 16.9503C28.0446 16.9503 27.073 17.1868 26.2292 17.6598C25.3983 18.1328 24.7463 18.8232 24.2733 19.7308C23.813 20.6257 23.5765 21.706 23.5637 22.9716ZM57.1555 22.9716V40H48.9865V10.5455H56.772V15.7422H57.1172C57.7692 14.0291 58.8622 12.674 60.3963 11.6768C61.9304 10.6669 63.7905 10.1619 65.9766 10.1619C68.022 10.1619 69.8054 10.6094 71.3267 11.5043C72.848 12.3991 74.0305 13.6776 74.8743 15.3395C75.718 16.9886 76.1399 18.9574 76.1399 21.2457V40H67.9709V22.7031C67.9837 20.9006 67.5234 19.4943 66.5902 18.4844C65.657 17.4616 64.3722 16.9503 62.7358 16.9503C61.6364 16.9503 60.6648 17.1868 59.821 17.6598C58.9901 18.1328 58.3381 18.8232 57.8651 19.7308C57.4048 20.6257 57.1683 21.706 57.1555 22.9716ZM95.8865 40.5753C92.9078 40.5753 90.3319 39.9425 88.1586 38.6768C85.998 37.3984 84.3297 35.6214 83.1536 33.3459C81.9775 31.0575 81.3894 28.4048 81.3894 25.3878C81.3894 22.3452 81.9775 19.6861 83.1536 17.4105C84.3297 15.1222 85.998 13.3452 88.1586 12.0795C90.3319 10.8011 92.9078 10.1619 95.8865 10.1619C98.8652 10.1619 101.435 10.8011 103.595 12.0795C105.769 13.3452 107.443 15.1222 108.619 17.4105C109.796 19.6861 110.384 22.3452 110.384 25.3878C110.384 28.4048 109.796 31.0575 108.619 33.3459C107.443 35.6214 105.769 37.3984 103.595 38.6768C101.435 39.9425 98.8652 40.5753 95.8865 40.5753ZM95.9249 34.2472C97.28 34.2472 98.4114 33.8636 99.3191 33.0966C100.227 32.3168 100.911 31.2557 101.371 29.9134C101.844 28.571 102.08 27.0433 102.08 25.3303C102.08 23.6172 101.844 22.0895 101.371 20.7472C100.911 19.4048 100.227 18.3437 99.3191 17.5639C98.4114 16.7841 97.28 16.3942 95.9249 16.3942C94.557 16.3942 93.4064 16.7841 92.4732 17.5639C91.5527 18.3437 90.856 19.4048 90.383 20.7472C89.9228 22.0895 89.6926 23.6172 89.6926 25.3303C89.6926 27.0433 89.9228 28.571 90.383 29.9134C90.856 31.2557 91.5527 32.3168 92.4732 33.0966C93.4064 33.8636 94.557 34.2472 95.9249 34.2472ZM142.206 10.5455L131.909 40H122.704L112.407 10.5455H121.036L127.153 31.62H127.46L133.558 10.5455H142.206ZM153.995 40.5561C152.116 40.5561 150.441 40.2301 148.971 39.5781C147.501 38.9134 146.337 37.9354 145.481 36.6442C144.637 35.3402 144.215 33.7166 144.215 31.7734C144.215 30.1371 144.516 28.7628 145.116 27.6506C145.717 26.5384 146.536 25.6435 147.571 24.9659C148.607 24.2884 149.783 23.777 151.099 23.4318C152.429 23.0866 153.822 22.8438 155.28 22.7031C156.993 22.5241 158.374 22.358 159.422 22.2045C160.47 22.0384 161.231 21.7955 161.704 21.4759C162.177 21.1562 162.413 20.6832 162.413 20.0568V19.9418C162.413 18.7273 162.03 17.7876 161.263 17.1229C160.509 16.4581 159.435 16.1257 158.041 16.1257C156.571 16.1257 155.401 16.4517 154.532 17.1037C153.663 17.7429 153.087 18.5483 152.806 19.5199L145.251 18.9062C145.634 17.1165 146.388 15.5696 147.513 14.2656C148.638 12.9489 150.089 11.9389 151.866 11.2358C153.656 10.5199 155.727 10.1619 158.08 10.1619C159.716 10.1619 161.282 10.3537 162.778 10.7372C164.286 11.1207 165.622 11.7152 166.786 12.5206C167.962 13.326 168.888 14.3615 169.566 15.6271C170.244 16.88 170.582 18.3821 170.582 20.1335V40H162.835V35.9155H162.605C162.132 36.8359 161.499 37.6477 160.707 38.3509C159.914 39.0412 158.962 39.5845 157.849 39.9808C156.737 40.3643 155.452 40.5561 153.995 40.5561ZM156.335 34.9183C157.536 34.9183 158.597 34.6818 159.518 34.2088C160.438 33.723 161.161 33.071 161.685 32.2528C162.209 31.4347 162.471 30.5078 162.471 29.4723V26.3466C162.215 26.5128 161.864 26.6662 161.416 26.8068C160.982 26.9347 160.489 27.0561 159.94 27.1712C159.39 27.2734 158.84 27.3693 158.29 27.4588C157.741 27.5355 157.242 27.6058 156.795 27.6697C155.836 27.8104 154.999 28.0341 154.283 28.3409C153.567 28.6477 153.011 29.0632 152.614 29.5874C152.218 30.0987 152.02 30.7379 152.02 31.505C152.02 32.6172 152.423 33.4673 153.228 34.0554C154.046 34.6307 155.082 34.9183 156.335 34.9183ZM192.587 10.5455V16.6818H174.849V10.5455H192.587ZM178.876 3.48864H187.045V30.9489C187.045 31.7031 187.16 32.2912 187.39 32.7131C187.62 33.1222 187.94 33.4098 188.349 33.576C188.771 33.7422 189.257 33.8253 189.806 33.8253C190.19 33.8253 190.574 33.7933 190.957 33.7294C191.341 33.6527 191.635 33.5952 191.839 33.5568L193.124 39.6357C192.715 39.7635 192.14 39.9105 191.398 40.0767C190.657 40.2557 189.755 40.3643 188.694 40.4027C186.725 40.4794 185 40.2173 183.517 39.6165C182.047 39.0156 180.902 38.0824 180.084 36.8168C179.266 35.5511 178.863 33.9531 178.876 32.0227V3.48864ZM211.015 40.5753C207.985 40.5753 205.377 39.9616 203.191 38.7344C201.018 37.4943 199.343 35.7429 198.167 33.4801C196.991 31.2045 196.403 28.5135 196.403 25.407C196.403 22.3771 196.991 19.718 198.167 17.4297C199.343 15.1413 200.999 13.358 203.134 12.0795C205.282 10.8011 207.8 10.1619 210.689 10.1619C212.632 10.1619 214.441 10.4751 216.116 11.1016C217.804 11.7152 219.274 12.642 220.527 13.8821C221.792 15.1222 222.777 16.6818 223.48 18.5611C224.183 20.4276 224.534 22.6136 224.534 25.1193V27.3629H199.663V22.3004H216.845C216.845 21.1243 216.589 20.0824 216.078 19.1747C215.566 18.267 214.857 17.5575 213.949 17.0462C213.054 16.522 212.012 16.2599 210.824 16.2599C209.583 16.2599 208.484 16.5476 207.525 17.1229C206.579 17.6854 205.838 18.446 205.301 19.4048C204.764 20.3509 204.489 21.4055 204.476 22.5689V27.3821C204.476 28.8395 204.745 30.0987 205.282 31.1598C205.831 32.2209 206.605 33.0391 207.602 33.6143C208.599 34.1896 209.782 34.4773 211.15 34.4773C212.057 34.4773 212.888 34.3494 213.642 34.0938C214.397 33.8381 215.042 33.4545 215.579 32.9432C216.116 32.4318 216.525 31.8054 216.806 31.0639L224.362 31.5625C223.978 33.3778 223.192 34.9631 222.003 36.3182C220.827 37.6605 219.306 38.7088 217.439 39.4631C215.586 40.2045 213.444 40.5753 211.015 40.5753ZM243.174 40.5753C240.157 40.5753 237.561 39.9361 235.388 38.6577C233.228 37.3665 231.566 35.5767 230.402 33.2884C229.252 31 228.676 28.3665 228.676 25.3878C228.676 22.3707 229.258 19.7244 230.422 17.4489C231.598 15.1605 233.266 13.3771 235.426 12.0987C237.587 10.8075 240.157 10.1619 243.135 10.1619C245.705 10.1619 247.955 10.6286 249.885 11.5618C251.816 12.495 253.343 13.8054 254.468 15.4929C255.593 17.1804 256.213 19.1619 256.328 21.4375H248.62C248.402 19.9673 247.827 18.7848 246.894 17.8899C245.973 16.9822 244.765 16.5284 243.27 16.5284C242.004 16.5284 240.898 16.8736 239.952 17.5639C239.019 18.2415 238.29 19.2322 237.766 20.5362C237.242 21.8402 236.98 23.419 236.98 25.2727C236.98 27.152 237.235 28.75 237.747 30.0668C238.271 31.3835 239.006 32.3871 239.952 33.0774C240.898 33.7678 242.004 34.1129 243.27 34.1129C244.203 34.1129 245.04 33.9212 245.782 33.5376C246.536 33.1541 247.156 32.598 247.642 31.8693C248.14 31.1278 248.466 30.2393 248.62 29.2038H256.328C256.201 31.4538 255.587 33.4354 254.488 35.1484C253.401 36.8487 251.899 38.1783 249.981 39.1371C248.064 40.0959 245.794 40.5753 243.174 40.5753ZM269.728 22.9716V40H261.559V0.727272H269.498V15.7422H269.843C270.508 14.0036 271.581 12.642 273.064 11.6577C274.547 10.6605 276.407 10.1619 278.645 10.1619C280.69 10.1619 282.474 10.6094 283.995 11.5043C285.529 12.3864 286.718 13.6584 287.562 15.3203C288.418 16.9695 288.84 18.9446 288.827 21.2457V40H280.658V22.7031C280.671 20.8878 280.211 19.4751 279.278 18.4652C278.357 17.4553 277.066 16.9503 275.404 16.9503C274.292 16.9503 273.307 17.1868 272.451 17.6598C271.607 18.1328 270.942 18.8232 270.456 19.7308C269.983 20.6257 269.741 21.706 269.728 22.9716Z" fill="#00BF82"/>
</svg>
