<svg width="285" height="41" viewBox="0 0 285 41" fill="none" xmlns="http://www.w3.org/2000/svg">
<path d="M0.917614 7.57315V0.727272H33.1719V7.57315H21.1484V40H12.9411V7.57315H0.917614ZM47.4821 40.5753C44.4522 40.5753 41.8443 39.9616 39.6582 38.7344C37.4849 37.4943 35.8102 35.7429 34.6341 33.4801C33.4579 31.2045 32.8699 28.5135 32.8699 25.407C32.8699 22.3771 33.4579 19.718 34.6341 17.4297C35.8102 15.1413 37.4657 13.358 39.6007 12.0795C41.7484 10.8011 44.2669 10.1619 47.1561 10.1619C49.0993 10.1619 50.9082 10.4751 52.5829 11.1016C54.2704 11.7152 55.7406 12.642 56.9934 13.8821C58.2591 15.1222 59.2434 16.6818 59.9466 18.5611C60.6497 20.4276 61.0012 22.6136 61.0012 25.1193V27.3629H36.1298V22.3004H53.3116C53.3116 21.1243 53.0559 20.0824 52.5446 19.1747C52.0332 18.267 51.3237 17.5575 50.416 17.0462C49.5211 16.522 48.4792 16.2599 47.2903 16.2599C46.0502 16.2599 44.9508 16.5476 43.992 17.1229C43.046 17.6854 42.3045 18.446 41.7676 19.4048C41.2306 20.3509 40.9558 21.4055 40.943 22.5689V27.3821C40.943 28.8395 41.2115 30.0987 41.7484 31.1598C42.2981 32.2209 43.0716 33.0391 44.0687 33.6143C45.0659 34.1896 46.2484 34.4773 47.6163 34.4773C48.524 34.4773 49.3549 34.3494 50.1092 34.0938C50.8635 33.8381 51.5091 33.4545 52.046 32.9432C52.5829 32.4318 52.992 31.8054 53.2733 31.0639L60.8287 31.5625C60.4451 33.3778 59.6589 34.9631 58.47 36.3182C57.2939 37.6605 55.7726 38.7088 53.9061 39.4631C52.0524 40.2045 49.911 40.5753 47.4821 40.5753ZM79.6404 40.5753C76.6234 40.5753 74.0282 39.9361 71.8549 38.6577C69.6944 37.3665 68.0325 35.5767 66.8691 33.2884C65.7186 31 65.1433 28.3665 65.1433 25.3878C65.1433 22.3707 65.725 19.7244 66.8883 17.4489C68.0645 15.1605 69.7328 13.3771 71.8933 12.0987C74.0538 10.8075 76.6234 10.1619 79.6021 10.1619C82.1717 10.1619 84.4217 10.6286 86.3521 11.5618C88.2825 12.495 89.8102 13.8054 90.9352 15.4929C92.0602 17.1804 92.6802 19.1619 92.7953 21.4375H85.0865C84.8691 19.9673 84.2939 18.7848 83.3606 17.8899C82.4402 16.9822 81.2321 16.5284 79.7363 16.5284C78.4707 16.5284 77.3649 16.8736 76.4189 17.5639C75.4856 18.2415 74.7569 19.2322 74.2328 20.5362C73.7086 21.8402 73.4466 23.419 73.4466 25.2727C73.4466 27.152 73.7022 28.75 74.2136 30.0668C74.7377 31.3835 75.4728 32.3871 76.4189 33.0774C77.3649 33.7678 78.4707 34.1129 79.7363 34.1129C80.6696 34.1129 81.5069 33.9212 82.2484 33.5376C83.0027 33.1541 83.6227 32.598 84.1085 31.8693C84.6071 31.1278 84.9331 30.2393 85.0865 29.2038H92.7953C92.6674 31.4538 92.0538 33.4354 90.9544 35.1484C89.8677 36.8487 88.3656 38.1783 86.448 39.1371C84.5304 40.0959 82.2612 40.5753 79.6404 40.5753ZM106.195 22.9716V40H98.0256V0.727272H105.964V15.7422H106.31C106.974 14.0036 108.048 12.642 109.531 11.6577C111.014 10.6605 112.874 10.1619 115.112 10.1619C117.157 10.1619 118.94 10.6094 120.462 11.5043C121.996 12.3864 123.185 13.6584 124.028 15.3203C124.885 16.9695 125.307 18.9446 125.294 21.2457V40H117.125V22.7031C117.138 20.8878 116.678 19.4751 115.744 18.4652C114.824 17.4553 113.533 16.9503 111.871 16.9503C110.759 16.9503 109.774 17.1868 108.918 17.6598C108.074 18.1328 107.409 18.8232 106.923 19.7308C106.45 20.6257 106.207 21.706 106.195 22.9716ZM153.214 40L141.977 0.727272H151.048L157.548 28.0149H157.874L165.046 0.727272H172.812L179.965 28.0724H180.31L186.811 0.727272H195.881L184.644 40H176.552L169.073 14.3232H168.766L161.307 40H153.214ZM205.407 40.5561C203.528 40.5561 201.853 40.2301 200.383 39.5781C198.913 38.9134 197.749 37.9354 196.893 36.6442C196.049 35.3402 195.627 33.7166 195.627 31.7734C195.627 30.1371 195.928 28.7628 196.529 27.6506C197.129 26.5384 197.948 25.6435 198.983 24.9659C200.019 24.2884 201.195 23.777 202.512 23.4318C203.841 23.0866 205.235 22.8438 206.692 22.7031C208.405 22.5241 209.786 22.358 210.834 22.2045C211.882 22.0384 212.643 21.7955 213.116 21.4759C213.589 21.1562 213.825 20.6832 213.825 20.0568V19.9418C213.825 18.7273 213.442 17.7876 212.675 17.1229C211.921 16.4581 210.847 16.1257 209.453 16.1257C207.983 16.1257 206.813 16.4517 205.944 17.1037C205.075 17.7429 204.499 18.5483 204.218 19.5199L196.663 18.9062C197.046 17.1165 197.801 15.5696 198.926 14.2656C200.051 12.9489 201.502 11.9389 203.279 11.2358C205.068 10.5199 207.139 10.1619 209.492 10.1619C211.128 10.1619 212.694 10.3537 214.19 10.7372C215.698 11.1207 217.034 11.7152 218.198 12.5206C219.374 13.326 220.301 14.3615 220.978 15.6271C221.656 16.88 221.994 18.3821 221.994 20.1335V40H214.247V35.9155H214.017C213.544 36.8359 212.911 37.6477 212.119 38.3509C211.326 39.0412 210.374 39.5845 209.262 39.9808C208.149 40.3643 206.865 40.5561 205.407 40.5561ZM207.747 34.9183C208.948 34.9183 210.009 34.6818 210.93 34.2088C211.85 33.723 212.573 33.071 213.097 32.2528C213.621 31.4347 213.883 30.5078 213.883 29.4723V26.3466C213.627 26.5128 213.276 26.6662 212.828 26.8068C212.394 26.9347 211.901 27.0561 211.352 27.1712C210.802 27.2734 210.252 27.3693 209.703 27.4588C209.153 27.5355 208.654 27.6058 208.207 27.6697C207.248 27.8104 206.411 28.0341 205.695 28.3409C204.979 28.6477 204.423 29.0632 204.026 29.5874C203.63 30.0987 203.432 30.7379 203.432 31.505C203.432 32.6172 203.835 33.4673 204.64 34.0554C205.458 34.6307 206.494 34.9183 207.747 34.9183ZM254.738 10.5455L244.44 40H235.236L224.938 10.5455H233.567L239.684 31.62H239.991L246.089 10.5455H254.738ZM271.392 40.5753C268.362 40.5753 265.754 39.9616 263.568 38.7344C261.395 37.4943 259.72 35.7429 258.544 33.4801C257.368 31.2045 256.78 28.5135 256.78 25.407C256.78 22.3771 257.368 19.718 258.544 17.4297C259.72 15.1413 261.376 13.358 263.511 12.0795C265.659 10.8011 268.177 10.1619 271.066 10.1619C273.009 10.1619 274.818 10.4751 276.493 11.1016C278.181 11.7152 279.651 12.642 280.904 13.8821C282.169 15.1222 283.154 16.6818 283.857 18.5611C284.56 20.4276 284.911 22.6136 284.911 25.1193V27.3629H260.04V22.3004H277.222C277.222 21.1243 276.966 20.0824 276.455 19.1747C275.943 18.267 275.234 17.5575 274.326 17.0462C273.431 16.522 272.389 16.2599 271.2 16.2599C269.96 16.2599 268.861 16.5476 267.902 17.1229C266.956 17.6854 266.215 18.446 265.678 19.4048C265.141 20.3509 264.866 21.4055 264.853 22.5689V27.3821C264.853 28.8395 265.122 30.0987 265.659 31.1598C266.208 32.2209 266.982 33.0391 267.979 33.6143C268.976 34.1896 270.159 34.4773 271.526 34.4773C272.434 34.4773 273.265 34.3494 274.019 34.0938C274.774 33.8381 275.419 33.4545 275.956 32.9432C276.493 32.4318 276.902 31.8054 277.183 31.0639L284.739 31.5625C284.355 33.3778 283.569 34.9631 282.38 36.3182C281.204 37.6605 279.683 38.7088 277.816 39.4631C275.963 40.2045 273.821 40.5753 271.392 40.5753Z" fill="#DB2F44"/>
</svg>
